<mxfile host="app.diagrams.net" modified="2021-02-16T05:08:27.878Z" agent="5.0 (Windows NT 10.0; Win64; x64) AppleWebKit/537.36 (KHTML, like Gecko) Chrome/88.0.4324.150 Safari/537.36" etag="05T9Ifkyt_lHUAS2fQRX" version="14.3.2" type="github">
  <diagram id="66nKBPbDpXkkj8jv5F4j" name="Page-1">
    <mxGraphModel dx="758" dy="735" grid="1" gridSize="10" guides="1" tooltips="1" connect="1" arrows="1" fold="1" page="1" pageScale="1" pageWidth="827" pageHeight="1169" math="0" shadow="0">
      <root>
        <mxCell id="0" />
        <mxCell id="1" parent="0" />
        <mxCell id="Foxrhu9IVq65S4tBOhWC-7" value="Order detail" style="edgeStyle=orthogonalEdgeStyle;rounded=0;orthogonalLoop=1;jettySize=auto;html=1;exitX=0;exitY=0;exitDx=0;exitDy=0;entryX=0.5;entryY=0;entryDx=0;entryDy=0;" edge="1" parent="1" source="Foxrhu9IVq65S4tBOhWC-1" target="Foxrhu9IVq65S4tBOhWC-5">
          <mxGeometry relative="1" as="geometry" />
        </mxCell>
        <mxCell id="Foxrhu9IVq65S4tBOhWC-9" value="required &lt;br&gt;stock file" style="edgeStyle=orthogonalEdgeStyle;rounded=0;orthogonalLoop=1;jettySize=auto;html=1;exitX=0.5;exitY=1;exitDx=0;exitDy=0;entryX=0.433;entryY=0;entryDx=0;entryDy=0;entryPerimeter=0;" edge="1" parent="1" source="Foxrhu9IVq65S4tBOhWC-1" target="Foxrhu9IVq65S4tBOhWC-8">
          <mxGeometry relative="1" as="geometry" />
        </mxCell>
        <mxCell id="Foxrhu9IVq65S4tBOhWC-1" value="McPerth system" style="ellipse;whiteSpace=wrap;html=1;aspect=fixed;" vertex="1" parent="1">
          <mxGeometry x="290" y="260" width="140" height="140" as="geometry" />
        </mxCell>
        <mxCell id="Foxrhu9IVq65S4tBOhWC-4" value="Order &lt;br&gt;detail" style="edgeStyle=orthogonalEdgeStyle;rounded=0;orthogonalLoop=1;jettySize=auto;html=1;exitX=0.75;exitY=1;exitDx=0;exitDy=0;entryX=0.679;entryY=0.043;entryDx=0;entryDy=0;entryPerimeter=0;" edge="1" parent="1" source="Foxrhu9IVq65S4tBOhWC-3" target="Foxrhu9IVq65S4tBOhWC-1">
          <mxGeometry relative="1" as="geometry" />
        </mxCell>
        <mxCell id="Foxrhu9IVq65S4tBOhWC-10" value="receipt" style="edgeStyle=orthogonalEdgeStyle;rounded=0;orthogonalLoop=1;jettySize=auto;html=1;exitX=0.321;exitY=0.007;exitDx=0;exitDy=0;entryX=0.25;entryY=1;entryDx=0;entryDy=0;exitPerimeter=0;" edge="1" parent="1" source="Foxrhu9IVq65S4tBOhWC-1" target="Foxrhu9IVq65S4tBOhWC-3">
          <mxGeometry relative="1" as="geometry" />
        </mxCell>
        <mxCell id="Foxrhu9IVq65S4tBOhWC-3" value="Customer" style="rounded=0;whiteSpace=wrap;html=1;" vertex="1" parent="1">
          <mxGeometry x="310" y="120" width="100" height="40" as="geometry" />
        </mxCell>
        <mxCell id="Foxrhu9IVq65S4tBOhWC-6" value="order number &lt;br&gt;detail" style="edgeStyle=orthogonalEdgeStyle;rounded=0;orthogonalLoop=1;jettySize=auto;html=1;exitX=0.5;exitY=1;exitDx=0;exitDy=0;entryX=0.079;entryY=0.821;entryDx=0;entryDy=0;entryPerimeter=0;" edge="1" parent="1" source="Foxrhu9IVq65S4tBOhWC-5" target="Foxrhu9IVq65S4tBOhWC-1">
          <mxGeometry relative="1" as="geometry" />
        </mxCell>
        <mxCell id="Foxrhu9IVq65S4tBOhWC-5" value="Kitchen" style="rounded=0;whiteSpace=wrap;html=1;" vertex="1" parent="1">
          <mxGeometry x="70" y="305" width="100" height="50" as="geometry" />
        </mxCell>
        <mxCell id="Foxrhu9IVq65S4tBOhWC-8" value="Supplier" style="rounded=0;whiteSpace=wrap;html=1;" vertex="1" parent="1">
          <mxGeometry x="320" y="470" width="90" height="40" as="geometry" />
        </mxCell>
        <mxCell id="Foxrhu9IVq65S4tBOhWC-18" value="Order detail" style="edgeStyle=orthogonalEdgeStyle;rounded=0;orthogonalLoop=1;jettySize=auto;html=1;exitX=1;exitY=0.5;exitDx=0;exitDy=0;entryX=1;entryY=0.5;entryDx=0;entryDy=0;" edge="1" parent="1" source="Foxrhu9IVq65S4tBOhWC-11" target="Foxrhu9IVq65S4tBOhWC-17">
          <mxGeometry relative="1" as="geometry" />
        </mxCell>
        <mxCell id="Foxrhu9IVq65S4tBOhWC-11" value="Process order" style="ellipse;whiteSpace=wrap;html=1;" vertex="1" parent="1">
          <mxGeometry x="850" y="85" width="90" height="90" as="geometry" />
        </mxCell>
        <mxCell id="Foxrhu9IVq65S4tBOhWC-13" value="Order &lt;br&gt;detail" style="edgeStyle=orthogonalEdgeStyle;rounded=0;orthogonalLoop=1;jettySize=auto;html=1;exitX=0.5;exitY=0;exitDx=0;exitDy=0;entryX=0.188;entryY=0.063;entryDx=0;entryDy=0;entryPerimeter=0;" edge="1" parent="1" source="Foxrhu9IVq65S4tBOhWC-12" target="Foxrhu9IVq65S4tBOhWC-11">
          <mxGeometry relative="1" as="geometry" />
        </mxCell>
        <mxCell id="Foxrhu9IVq65S4tBOhWC-12" value="Customer" style="rounded=0;whiteSpace=wrap;html=1;" vertex="1" parent="1">
          <mxGeometry x="680" y="115" width="80" height="30" as="geometry" />
        </mxCell>
        <mxCell id="Foxrhu9IVq65S4tBOhWC-16" value="Update burgers &lt;br&gt;sold counter" style="edgeStyle=orthogonalEdgeStyle;rounded=0;orthogonalLoop=1;jettySize=auto;html=1;exitX=1;exitY=0;exitDx=0;exitDy=0;entryX=0.5;entryY=0;entryDx=0;entryDy=0;" edge="1" parent="1" source="Foxrhu9IVq65S4tBOhWC-11" target="Foxrhu9IVq65S4tBOhWC-14">
          <mxGeometry relative="1" as="geometry">
            <Array as="points">
              <mxPoint x="1160" y="98" />
            </Array>
          </mxGeometry>
        </mxCell>
        <mxCell id="Foxrhu9IVq65S4tBOhWC-14" value="N. orders" style="shape=dataStorage;whiteSpace=wrap;html=1;fixedSize=1;" vertex="1" parent="1">
          <mxGeometry x="1110" y="115" width="100" height="50" as="geometry" />
        </mxCell>
        <mxCell id="Foxrhu9IVq65S4tBOhWC-17" value="Kitchen" style="ellipse;whiteSpace=wrap;html=1;" vertex="1" parent="1">
          <mxGeometry x="850" y="220" width="90" height="90" as="geometry" />
        </mxCell>
      </root>
    </mxGraphModel>
  </diagram>
</mxfile>
